<svg width="153" height="30" viewBox="0 0 153 30" fill="none" xmlns="http://www.w3.org/2000/svg">
<mask id="mask0" mask-type="alpha" maskUnits="userSpaceOnUse" x="4" y="5" width="145" height="22">
<path d="M9.72656 19.2461V26H4.92773V6.09375H12.8711C14.3932 6.09375 15.7376 6.3763 16.9043 6.94141C18.0801 7.4974 18.987 8.29492 19.625 9.33398C20.2721 10.3639 20.5957 11.5352 20.5957 12.8477C20.5957 14.7891 19.8984 16.3431 18.5039 17.5098C17.1185 18.6673 15.2135 19.2461 12.7891 19.2461H9.72656ZM9.72656 15.541H12.8711C13.8008 15.541 14.5072 15.3086 14.9902 14.8438C15.4824 14.3789 15.7285 13.7227 15.7285 12.875C15.7285 11.9453 15.4779 11.2025 14.9766 10.6465C14.4753 10.0905 13.7917 9.80794 12.9258 9.79883H9.72656V15.541ZM32.0391 22.2812H25.4629L24.3145 26H19.1875L26.4883 6.09375H31L38.3555 26H33.2012L32.0391 22.2812ZM26.6113 18.5762H30.8906L28.7441 11.6719L26.6113 18.5762ZM55.623 19.2598C55.5592 20.6452 55.1855 21.8711 54.502 22.9375C53.8184 23.9948 52.8568 24.8151 51.6172 25.3984C50.3867 25.9818 48.9785 26.2734 47.3926 26.2734C44.7767 26.2734 42.7168 25.4212 41.2129 23.7168C39.709 22.0124 38.957 19.6061 38.957 16.498V15.5137C38.957 13.5632 39.2943 11.8587 39.9688 10.4004C40.6523 8.93294 41.6322 7.80273 42.9082 7.00977C44.1842 6.20768 45.6608 5.80664 47.3379 5.80664C49.7533 5.80664 51.6947 6.44466 53.1621 7.7207C54.6296 8.98763 55.4635 10.7376 55.6641 12.9707H50.8789C50.8424 11.7585 50.5371 10.888 49.9629 10.3594C49.3887 9.83073 48.5137 9.56641 47.3379 9.56641C46.1439 9.56641 45.2689 10.013 44.7129 10.9062C44.1569 11.7995 43.8652 13.2259 43.8379 15.1855V16.5938C43.8379 18.7174 44.1022 20.235 44.6309 21.1465C45.1686 22.0579 46.0892 22.5137 47.3926 22.5137C48.4954 22.5137 49.3385 22.2539 49.9219 21.7344C50.5052 21.2148 50.8151 20.39 50.8516 19.2598H55.623ZM63.0059 26H58.2207V6.09375H63.0059V26ZM71.1406 22.3086H79.4941V26H66.3418V6.09375H71.1406V22.3086ZM90.3086 19.2051H82.0918V15.6367H90.3086V19.2051ZM110.42 23.5391C109.682 24.3594 108.602 25.0202 107.18 25.5215C105.758 26.0228 104.199 26.2734 102.504 26.2734C99.8971 26.2734 97.8145 25.4759 96.2559 23.8809C94.6973 22.2858 93.8633 20.0664 93.7539 17.2227L93.7402 15.5C93.7402 13.5404 94.0866 11.8314 94.7793 10.373C95.472 8.9056 96.4609 7.77995 97.7461 6.99609C99.0404 6.20312 100.535 5.80664 102.23 5.80664C104.71 5.80664 106.633 6.3763 108 7.51562C109.376 8.64583 110.178 10.3366 110.406 12.5879H105.785C105.621 11.4759 105.266 10.6829 104.719 10.209C104.172 9.73503 103.397 9.49805 102.395 9.49805C101.191 9.49805 100.262 10.0085 99.6055 11.0293C98.9492 12.0501 98.6165 13.5085 98.6074 15.4043V16.6074C98.6074 18.5944 98.9447 20.0892 99.6191 21.0918C100.303 22.0853 101.374 22.582 102.832 22.582C104.081 22.582 105.01 22.304 105.621 21.748V18.6582H102.285V15.3633H110.42V23.5391ZM124.516 22.2812H117.939L116.791 26H111.664L118.965 6.09375H123.477L130.832 26H125.678L124.516 22.2812ZM119.088 18.5762H123.367L121.221 11.6719L119.088 18.5762ZM148.291 23.5391C147.553 24.3594 146.473 25.0202 145.051 25.5215C143.629 26.0228 142.07 26.2734 140.375 26.2734C137.768 26.2734 135.686 25.4759 134.127 23.8809C132.568 22.2858 131.734 20.0664 131.625 17.2227L131.611 15.5C131.611 13.5404 131.958 11.8314 132.65 10.373C133.343 8.9056 134.332 7.77995 135.617 6.99609C136.911 6.20312 138.406 5.80664 140.102 5.80664C142.581 5.80664 144.504 6.3763 145.871 7.51562C147.247 8.64583 148.049 10.3366 148.277 12.5879H143.656C143.492 11.4759 143.137 10.6829 142.59 10.209C142.043 9.73503 141.268 9.49805 140.266 9.49805C139.062 9.49805 138.133 10.0085 137.477 11.0293C136.82 12.0501 136.488 13.5085 136.479 15.4043V16.6074C136.479 18.5944 136.816 20.0892 137.49 21.0918C138.174 22.0853 139.245 22.582 140.703 22.582C141.952 22.582 142.882 22.304 143.492 21.748V18.6582H140.156V15.3633H148.291V23.5391Z" fill="white"/>
</mask>
<g mask="url(#mask0)">
<rect x="5" y="5" width="145" height="25" fill="url(#paint0_linear)"/>
</g>
<defs>
<linearGradient id="paint0_linear" x1="1.5" y1="17" x2="148" y2="17" gradientUnits="userSpaceOnUse">
<stop stop-color="#EC006A"/>
<stop offset="1" stop-color="#992F8B"/>
</linearGradient>
</defs>
</svg>
